<svg class="spinner" version="1.1" id="Layer_1" xmlns="http://www.w3.org/2000/svg" xmlns:xlink="http://www.w3.org/1999/xlink" x="0px" y="0px" viewBox="0 0 93.5 131" xml:space="preserve">
<g>
	<path d="M76.1,0.2c3.4,0.3,8.9,2,12.9,5.6c4.3,4.2,5.3,10.6,3.8,16.3c-1.4,5.2-2.9,7.9-8.1,11.4c-5.3,3.6-11.8,3.3-11.8,3.3v22.3
		L83.8,68l-10.9,8.8v30.5c0,0,10.9-6.3,17.7-20.2c0,0,0.3-0.8,0.9-2.2c0.6,3.8,0.2,11.4-4,21.1c-3.2,7.4-9,14.4-16.3,18.5
		c-12.9,7.1-22.6,7.8-33,5.7c-12.1-2.5-23.2-9.3-30.8-21.2C2.2,100.3-0.2,90.6,0,80c0.4-20.6,15.8-38.4,33.5-45
		c2.2-0.8,3-1.3,6.1-1.6c-1.4,1-3,2.2-5,3.5c-5.7,3.8-10.6,11.2-12.7,17l34.4-15.3v48.1l-27.7,13.8c3.2,4.4,12.7,11,21,12
		c13.9,1.5,22.2-4.5,22.2-4.5l0-31.1L60.8,68l10.8-8.8V36.8c-5.9-0.7-13.1-2.7-17.3-3.7c-6.2-1.5-26.7-7.3-29.9-7.8
		c-3.2-0.5-7.2-0.3-9.6,1.8c-2.4,2.2-3.9,6-2.9,9.5c0.6,2,1.9,3.1,2.9,4.2c0,0-1.2-0.1-3.4-1.4c-3.9-2.3-6.8-6.9-7.2-12.5
		c-0.4-7.3,2.6-14,8.6-18.4c5.3-3.4,11.2-5.5,18.2-4.6C41.3,5.3,54.9,11.1,67,14c4.7,1.1,8.3,1.5,11.6-0.4c1.5-1.1,4.2-3.9,2-7.8
		C78.1,1.3,73.2,1.4,69,0.6C72.6-0.1,73.4-0.1,76.1,0.2z M35.2,95.7V49.3l-14,6.2c0,0-3.6,8-3,19.5c0.5,9,5.5,19.8,9.4,24.3
		L35.2,95.7z"/>
</g>
</svg>

